<svg xmlns="http://www.w3.org/2000/svg" width="1280" height="353" viewBox="0 0 1280 353"><defs><style>.a{fill:#fff;}.b{opacity:0.5;}</style></defs><title>TextVQA Logo and text white</title><path class="a" d="M259.86,79.2c30,0,58.84,9.29,90.66,29.25,29.36,18.4,57.59,43.79,84.88,68.34l.27.25c-33.27,29.63-60.81,50.71-86.34,66.11-32.69,19.73-62.07,29.73-87.32,29.73-26.12,0-54.51-9.22-86.8-28.2-26.27-15.44-54.69-37-89.09-67.69l2.57-2.34c30.93-28.17,57.64-52.49,85.13-69.55,28.88-17.91,55.41-25.9,86-25.9m0-20C183,59.2,134.44,106,68.17,166.29c-6,5.42-6,16.1,0,21.49C132.11,245.36,198,292.88,262,292.88S394.55,241,453.61,187.82c6-5.4,6-16.13,0-21.53C395.56,114.11,336.72,59.2,259.86,59.2Z"/><path class="a" d="M602.81,242H576.27V146.62H540.54V124h98v22.64H602.81Z"/><path class="a" d="M655.71,206.58c1.59,11.68,8.49,18,19.28,18,6.72,0,11.5-2.3,14.86-7.61h25.47c-4.78,16.63-20.7,27.24-41,27.24-26.35,0-43.86-18-43.86-44.93,0-26.71,17.86-45.1,43.68-45.1,18,0,31.67,9,38,25.11,3,7.43,4.25,15.39,4.25,27.24Zm34.84-17.68c-1.06-10.09-6.89-15.57-16.62-15.57s-16.1,5.48-18,15.57Z"/><path class="a" d="M807.49,242H778.3l-16.09-24.41L746.47,242H717.81l30.6-44.75-27.95-40.68h27.95l14,21.58,13.45-21.58h27.95L776,197.21Z"/><path class="a" d="M863.21,175.28H847.82v33.25c0,13.44.53,14.5,6.37,14.5h9V242H847.82c-11,0-16.45-1.59-20.17-5.66-3.89-4.25-4.95-8.84-4.95-22.11V175.28h-12V157.59h12V130.53h25.12v27.06h15.39Z"/><path class="a" d="M903,242,864,124h28.47l15.57,53.77c0,.18,1.24,4.6,2.3,8.49.88,3.54,2,6.9,2.83,10.26l3.54,13.09c3.18-13.09,4.07-16.63,8.31-32L940.8,124h27.77L929.13,242Z"/><path class="a" d="M1087.61,233.82l-14.86,16.1L1058.25,237a61.61,61.61,0,0,1-30.42,7.6c-34.85,0-58.37-24.76-58.37-61.73,0-36.79,23.52-61.55,58.54-61.55,34.85,0,58.38,24.76,58.38,61.38,0,15.56-4.07,29.71-11.68,39.62Zm-32.72-29.18c2.48-5.84,3.71-13.27,3.71-21.93,0-24.24-11.49-38.92-30.6-38.92-19.28,0-30.77,14.68-30.77,39.09,0,24.77,11.49,39.27,31,39.27a28.55,28.55,0,0,0,11.15-2.12l-9-8L1045,195.62Z"/><path class="a" d="M1131.28,218.26l-7.43,23.7H1095l41.22-118h33.07l37.5,118h-30.07l-6.37-23.7Zm20.88-67.92-14.33,46.16h26.71Z"/><g class="b"><path class="a" d="M265,171H195a6,6,0,0,1,0-12h70a6,6,0,0,1,0,12Z"/><path class="a" d="M322,171H282a6,6,0,0,1,0-12h40a6,6,0,0,1,0,12Z"/><path class="a" d="M281,192H229a6,6,0,0,1,0-12h52a6,6,0,0,1,0,12Z"/><path class="a" d="M212,192H195a6,6,0,0,1,0-12h17a6,6,0,0,1,0,12Z"/><path class="a" d="M322,192H298a6,6,0,0,1,0-12h24a6,6,0,0,1,0,12Z"/><path class="a" d="M241,213H195a6,6,0,0,1,0-12h46a6,6,0,0,1,0,12Z"/><path class="a" d="M264,213h-5a6,6,0,0,1,0-12h5a6,6,0,0,1,0,12Z"/><path class="a" d="M291,150H219a6,6,0,0,1,0-12h72a6,6,0,0,1,0,12Z"/><path class="a" d="M202,150h-7a6,6,0,0,1,0-12h7a6,6,0,0,1,0,12Z"/><path class="a" d="M322,150H308a6,6,0,0,1,0-12h14a6,6,0,0,1,0,12Z"/></g><path class="a" d="M259.5,96.39a78.11,78.11,0,1,0,42.82,143.39l6.28,7a10,10,0,1,0,14.86-13.38l-5.95-6.62a78.07,78.07,0,0,0-58-130.36Zm0,136.22a58.11,58.11,0,1,1,58.11-58.11,58.18,58.18,0,0,1-58.11,58.11Z"/></svg>