<?xml version="1.0" encoding="utf-8"?>
<!-- Generator: Adobe Illustrator 24.0.1, SVG Export Plug-In . SVG Version: 6.00 Build 0)  -->
<svg version="1.1" id="Layer_1" xmlns="http://www.w3.org/2000/svg" xmlns:xlink="http://www.w3.org/1999/xlink" x="0px" y="0px"
	 viewBox="0 0 600 600" style="enable-background:new 0 0 600 600;" xml:space="preserve">
<style type="text/css">
	.st0{fill:none;}
	.st1{enable-background:new    ;}
	.st2{fill:#2B2B2B;}
</style>
<rect x="97.6" y="394.9" class="st0" width="727" height="269.9"/>
<g class="st1">
	<path class="st2" d="M157,411.6h-20.7v56.1h-16.6v-56.1H99.3v-12.8H157V411.6z"/>
	<path class="st2" d="M183.8,468.6c-7.9,0-14.2-2.3-19.1-7c-4.9-4.7-7.3-10.8-7.3-18.3V442c0-5.2,1-9.9,2.9-13.9
		c1.9-4,4.8-7.1,8.5-9.3c3.7-2.2,8.1-3.3,13.3-3.3c7.2,0,12.9,2.2,17.1,6.7s6.3,10.7,6.3,18.7v6.2h-31.7c0.6,2.9,1.8,5.1,3.7,6.8
		c1.9,1.6,4.4,2.5,7.5,2.5c5.1,0,9-1.8,11.8-5.3l7.3,8.6c-2,2.7-4.8,4.9-8.5,6.6C192,467.8,188,468.6,183.8,468.6z M182,427.8
		c-4.7,0-7.5,3.1-8.3,9.3h16.1v-1.2c0.1-2.6-0.6-4.5-1.9-5.9C186.5,428.5,184.6,427.8,182,427.8z"/>
	<path class="st2" d="M232.6,430.5l7.4-14.1h16.6l-13.5,25l14.2,26.3h-16.7l-8.1-15.2l-7.9,15.2h-16.8l14.2-26.3l-13.5-25h16.8
		L232.6,430.5z"/>
	<path class="st2" d="M280.4,403.7v12.7h8.4v11.1h-8.4V451c0,1.9,0.3,3.3,1,4c0.7,0.8,2.1,1.1,4.1,1.1c1.6,0,2.9-0.1,4-0.3v11.4
		c-2.9,0.9-5.9,1.4-9,1.4c-5.5,0-9.6-1.3-12.2-3.9c-2.6-2.6-3.9-6.5-3.9-11.8v-25.4h-6.5v-11.1h6.5v-12.7H280.4z"/>
	<path class="st2" d="M351.6,444.3c-0.2,4.8-1.5,9-3.9,12.7c-2.4,3.7-5.7,6.5-10,8.5c-4.3,2-9.2,3-14.7,3c-9.1,0-16.2-3-21.4-8.9
		c-5.2-5.9-7.8-14.2-7.8-25v-3.4c0-6.8,1.2-12.7,3.5-17.7c2.4-5.1,5.7-9,10.2-11.7c4.4-2.8,9.5-4.1,15.3-4.1
		c8.4,0,15.1,2.2,20.2,6.6c5.1,4.4,8,10.5,8.7,18.2h-16.6c-0.1-4.2-1.2-7.2-3.2-9c-2-1.8-5-2.7-9.1-2.7c-4.1,0-7.2,1.5-9.1,4.6
		c-1.9,3.1-2.9,8-3,14.8v4.9c0,7.4,0.9,12.6,2.8,15.8c1.8,3.2,5,4.7,9.5,4.7c3.8,0,6.7-0.9,8.8-2.7c2-1.8,3.1-4.7,3.2-8.6H351.6z"/>
	<path class="st2" d="M387.6,467.7c-0.6-1-1.1-2.6-1.5-4.6c-2.9,3.7-7,5.5-12.3,5.5c-4.8,0-8.9-1.5-12.3-4.4s-5.1-6.6-5.1-11
		c0-5.6,2.1-9.8,6.2-12.6c4.1-2.8,10.1-4.3,17.9-4.3h4.9v-2.7c0-4.7-2-7.1-6.1-7.1c-3.8,0-5.7,1.9-5.7,5.6h-16c0-5,2.1-9,6.3-12.1
		c4.2-3.1,9.6-4.6,16.1-4.6s11.7,1.6,15.5,4.8s5.7,7.6,5.8,13.1v22.7c0.1,4.7,0.8,8.3,2.2,10.8v0.8H387.6z M377.6,457.3
		c2,0,3.6-0.4,5-1.3c1.3-0.9,2.2-1.8,2.8-2.9v-8.2h-4.6c-5.6,0-8.3,2.5-8.3,7.5c0,1.5,0.5,2.6,1.5,3.5
		C374.8,456.8,376.1,457.3,377.6,457.3z"/>
	<path class="st2" d="M457.8,442.4c0,8-1.8,14.3-5.4,19.1c-3.6,4.8-8.4,7.1-14.5,7.1c-4.7,0-8.6-1.7-11.6-5.2v23.9h-16v-71h14.9
		l0.5,4.7c3.1-3.8,7.1-5.7,12.1-5.7c6.3,0,11.2,2.3,14.7,7s5.3,11.1,5.3,19.2V442.4z M441.8,441.4c0-9.1-2.7-13.6-8-13.6
		c-3.8,0-6.3,1.4-7.6,4.1v20.2c1.4,2.8,3.9,4.3,7.7,4.3c5.1,0,7.7-4.4,7.9-13.2V441.4z"/>
	<path class="st2" d="M491.6,453.3c0-1.4-0.7-2.4-2.1-3.3c-1.4-0.8-4.1-1.7-8.1-2.6c-4-0.9-7.3-2-9.9-3.5s-4.6-3.2-5.9-5.2
		c-1.4-2.1-2-4.4-2-7.1c0-4.7,1.9-8.6,5.8-11.6c3.9-3,9-4.6,15.3-4.6c6.8,0,12.2,1.5,16.3,4.6c4.1,3.1,6.2,7.1,6.2,12.1h-16
		c0-4.1-2.2-6.2-6.5-6.2c-1.7,0-3.1,0.5-4.2,1.4s-1.7,2.1-1.7,3.5c0,1.4,0.7,2.6,2.1,3.5c1.4,0.9,3.6,1.6,6.7,2.2s5.7,1.2,8,2
		c7.7,2.7,11.6,7.4,11.6,14.3c0,4.7-2.1,8.5-6.2,11.4c-4.2,2.9-9.5,4.4-16.1,4.4c-4.4,0-8.3-0.8-11.7-2.4c-3.4-1.6-6.1-3.7-8.1-6.4
		c-1.9-2.7-2.9-5.6-2.9-8.6h14.9c0.1,2.4,0.9,4.1,2.4,5.2c1.5,1.1,3.5,1.6,5.8,1.6c2.2,0,3.8-0.4,4.9-1.3
		C491.1,455.9,491.6,454.7,491.6,453.3z"/>
</g>
</svg>
