<svg xmlns="http://www.w3.org/2000/svg" width="600" height="600" viewBox="0 0 600 600"><defs><style>.a{fill:#7bbb00;}.b{opacity:0.5;}</style></defs><title>TextVQA Logo only</title><path class="a" d="M299.86,139.2c30,0,58.84,9.29,90.66,29.25,29.36,18.4,57.59,43.79,84.88,68.34l.27.25c-33.27,29.63-60.81,50.71-86.34,66.11-32.69,19.73-62.07,29.73-87.32,29.73-26.12,0-54.51-9.22-86.8-28.2-26.27-15.44-54.69-37-89.09-67.69l2.57-2.34c30.93-28.17,57.64-52.49,85.13-69.55,28.88-17.91,55.41-25.9,86-25.9m0-20C223,119.2,174.44,166,108.17,226.29c-6,5.42-6,16.1,0,21.49C172.11,305.36,238,352.88,302,352.88S434.55,301,493.61,247.82c6-5.4,6-16.13,0-21.53C435.56,174.11,376.72,119.2,299.86,119.2Z"/><g class="b"><path class="a" d="M305,231H235a6,6,0,0,1,0-12h70a6,6,0,0,1,0,12Z"/><path class="a" d="M362,231H322a6,6,0,0,1,0-12h40a6,6,0,0,1,0,12Z"/><path class="a" d="M321,252H269a6,6,0,0,1,0-12h52a6,6,0,0,1,0,12Z"/><path class="a" d="M252,252H235a6,6,0,0,1,0-12h17a6,6,0,0,1,0,12Z"/><path class="a" d="M362,252H338a6,6,0,0,1,0-12h24a6,6,0,0,1,0,12Z"/><path class="a" d="M281,273H235a6,6,0,0,1,0-12h46a6,6,0,0,1,0,12Z"/><path class="a" d="M304,273h-5a6,6,0,0,1,0-12h5a6,6,0,0,1,0,12Z"/><path class="a" d="M331,210H259a6,6,0,0,1,0-12h72a6,6,0,0,1,0,12Z"/><path class="a" d="M242,210h-7a6,6,0,0,1,0-12h7a6,6,0,0,1,0,12Z"/><path class="a" d="M362,210H348a6,6,0,0,1,0-12h14a6,6,0,0,1,0,12Z"/></g><path class="a" d="M299.5,156.39a78.11,78.11,0,1,0,42.82,143.39l6.28,7a10,10,0,0,0,14.86-13.38l-5.95-6.62a78.07,78.07,0,0,0-58-130.36Zm0,136.22a58.11,58.11,0,1,1,58.11-58.11,58.18,58.18,0,0,1-58.11,58.11Z"/></svg>