<?xml version="1.0" encoding="utf-8"?>
<!-- Generator: Adobe Illustrator 24.0.1, SVG Export Plug-In . SVG Version: 6.00 Build 0)  -->
<svg version="1.1" id="Layer_1" xmlns="http://www.w3.org/2000/svg" xmlns:xlink="http://www.w3.org/1999/xlink" x="0px" y="0px"
	 viewBox="0 0 1280 353" style="enable-background:new 0 0 1280 353;" xml:space="preserve">
<style type="text/css">
	.st0{fill:#FFFFFF;}
	.st1{opacity:0.5;fill:#FFFFFF;stroke:#FFFFFF;stroke-width:13;stroke-linecap:round;stroke-miterlimit:10;}
	.st2{fill:none;stroke:#FFFFFF;stroke-width:20;stroke-linecap:round;stroke-miterlimit:10;}
	.st3{fill:none;}
	.st4{font-family:'Roboto-Black';}
	.st5{font-size:155px;}
</style>
<title>TextVQA Logo and text white</title>
<path class="st0" d="M262.5,81.7c30,0,58.8,9.3,90.7,29.3c29.4,18.4,57.6,43.8,84.9,68.3l0.3,0.3c-33.3,29.6-60.8,50.7-86.3,66.1
	c-32.7,19.7-62.1,29.7-87.3,29.7c-26.1,0-54.5-9.2-86.8-28.2c-26.3-15.4-54.7-37-89.1-67.7l2.6-2.3c30.9-28.2,57.6-52.5,85.1-69.5
	C205.4,89.7,231.9,81.7,262.5,81.7 M262.5,61.7c-76.8,0-125.4,46.8-191.6,107.1c-6,5.4-6,16.1,0,21.5
	c63.9,57.6,129.8,105.1,193.8,105.1s132.5-51.9,191.6-105.1c6-5.4,6-16.1,0-21.5C398.2,116.6,339.4,61.7,262.5,61.7L262.5,61.7z"/>
<line class="st1" x1="238.4" y1="135.7" x2="280.5" y2="135.7"/>
<line class="st1" x1="300.3" y1="135.7" x2="310.8" y2="135.7"/>
<line class="st1" x1="197.8" y1="156.7" x2="256.7" y2="156.7"/>
<line class="st1" x1="208.7" y1="135.7" x2="220" y2="135.7"/>
<line class="st1" x1="275.1" y1="156.7" x2="330.1" y2="156.7"/>
<line class="st1" x1="194.6" y1="177.7" x2="214.6" y2="177.7"/>
<line class="st1" x1="233.4" y1="177.7" x2="276.2" y2="177.7"/>
<line class="st1" x1="294.4" y1="177.7" x2="334" y2="177.7"/>
<line class="st1" x1="197.8" y1="198.7" x2="302.3" y2="198.7"/>
<line class="st1" x1="321.8" y1="198.7" x2="330.1" y2="198.7"/>
<line class="st1" x1="208.7" y1="219.9" x2="249.5" y2="219.9"/>
<line class="st1" x1="268.4" y1="219.9" x2="280.5" y2="219.9"/>
<line class="st1" x1="297.6" y1="219.9" x2="317.5" y2="221"/>
<path class="st2" d="M320.5,138c-22.1-29.6-62.9-37.4-93-19c-29.1,17.8-40.1,55-28,85c9.1,22.6,30.5,38.8,55,42
	c37.5,4.9,61.6-23.2,63-25"/>
<rect x="524.3" y="110.6" class="st3" width="735.1" height="174.4"/>
<text transform="matrix(1 0 0 1 524.3317 226.8534)" class="st0 st4 st5">TextCaps</text>
</svg>
