<?xml version="1.0" encoding="utf-8"?>
<!-- Generator: Adobe Illustrator 24.0.1, SVG Export Plug-In . SVG Version: 6.00 Build 0)  -->
<svg version="1.1" id="Layer_1" xmlns="http://www.w3.org/2000/svg" xmlns:xlink="http://www.w3.org/1999/xlink" x="0px" y="0px"
	 viewBox="0 0 1280 353" style="enable-background:new 0 0 1280 353;" xml:space="preserve">
<style type="text/css">
	.st0{fill:#A81E2F;}
	.st1{opacity:0.5;fill:#A81E2F;stroke:#A81E2F;stroke-width:13;stroke-linecap:round;stroke-miterlimit:10;}
	.st2{fill:none;stroke:#2B2B2B;stroke-width:20;stroke-linecap:round;stroke-miterlimit:10;}
	.st3{fill:none;}
	.st4{fill:#2B2B2B;}
	.st5{font-family:'Roboto-Black';}
	.st6{font-size:155px;}
</style>
<title>TextVQA Logo and text</title>
<path class="st0" d="M266.9,79.2c30,0,58.8,9.3,90.7,29.3c29.4,18.4,57.6,43.8,84.9,68.3l0.3,0.3c-33.3,29.6-60.8,50.7-86.3,66.1
	c-32.7,19.7-62.1,29.7-87.3,29.7c-26.1,0-54.5-9.2-86.8-28.2c-26.3-15.4-54.7-37-89.1-67.7l2.6-2.3c30.9-28.2,57.6-52.5,85.1-69.6
	C209.7,87.2,236.2,79.2,266.9,79.2 M266.8,59.2C190,59.2,141.4,106,75.2,166.3c-6,5.4-6,16.1,0,21.5
	C139.1,245.4,205,292.9,269,292.9S401.5,241,460.6,187.8c6-5.4,6-16.1,0-21.5C402.6,114.1,343.7,59.2,266.8,59.2L266.8,59.2z"/>
<line class="st1" x1="242.8" y1="133.2" x2="284.8" y2="133.2"/>
<line class="st1" x1="304.6" y1="133.2" x2="315.2" y2="133.2"/>
<line class="st1" x1="202.1" y1="154.2" x2="261" y2="154.2"/>
<line class="st1" x1="213.1" y1="133.2" x2="224.4" y2="133.2"/>
<line class="st1" x1="279.4" y1="154.2" x2="334.4" y2="154.2"/>
<line class="st1" x1="199" y1="175.2" x2="218.9" y2="175.2"/>
<line class="st1" x1="237.8" y1="175.2" x2="280.5" y2="175.2"/>
<line class="st1" x1="298.7" y1="175.2" x2="338.4" y2="175.2"/>
<line class="st1" x1="202.1" y1="196.2" x2="306.6" y2="196.2"/>
<line class="st1" x1="326.2" y1="196.2" x2="334.4" y2="196.2"/>
<line class="st1" x1="213.1" y1="217.4" x2="253.8" y2="217.4"/>
<line class="st1" x1="272.8" y1="217.4" x2="284.8" y2="217.4"/>
<line class="st1" x1="301.9" y1="217.4" x2="321.8" y2="218.5"/>
<path class="st2" d="M324.8,135.5c-22.1-29.6-62.9-37.4-93-19c-29.1,17.8-40.1,55-28,85c9.1,22.6,30.5,38.8,55,42
	c37.5,4.9,61.6-23.2,63-25"/>
<rect x="528.7" y="108.1" class="st3" width="735.1" height="269.9"/>
<text transform="matrix(1 0 0 1 528.6612 224.361)" class="st4 st5 st6">TextCaps</text>
</svg>
