<?xml version="1.0" encoding="utf-8"?>
<!-- Generator: Adobe Illustrator 24.0.1, SVG Export Plug-In . SVG Version: 6.00 Build 0)  -->
<svg version="1.1" id="Layer_1" xmlns="http://www.w3.org/2000/svg" xmlns:xlink="http://www.w3.org/1999/xlink" x="0px" y="0px"
	 viewBox="0 0 1280 353" style="enable-background:new 0 0 1280 353;" xml:space="preserve">
<style type="text/css">
	.st0{fill:#FFFFFF;}
	.st1{opacity:0.5;fill:#A81E2F;stroke:#FFFFFF;stroke-width:13;stroke-linecap:round;stroke-miterlimit:10;}
	.st2{opacity:0.5;fill:#FFFFFF;stroke:#FFFFFF;stroke-width:13;stroke-linecap:round;stroke-miterlimit:10;}
	.st3{fill:none;stroke:#FFFFFF;stroke-width:20;stroke-linecap:round;stroke-miterlimit:10;}
</style>
<path class="st0" d="M259.9,79.2c30,0,58.8,9.3,90.7,29.3c29.4,18.4,57.6,43.8,84.9,68.3l0.3,0.3c-33.3,29.6-60.8,50.7-86.3,66.1
	c-32.7,19.7-62.1,29.7-87.3,29.7c-26.1,0-54.5-9.2-86.8-28.2c-26.3-15.4-54.7-37-89.1-67.7l2.6-2.3c30.9-28.2,57.6-52.5,85.1-69.6
	C202.7,87.2,229.2,79.2,259.9,79.2 M259.8,59.2C183,59.2,134.4,106,68.2,166.3c-6,5.4-6,16.1,0,21.5
	C132.1,245.4,198,292.9,262,292.9S394.5,241,453.6,187.8c6-5.4,6-16.1,0-21.5C395.6,114.1,336.7,59.2,259.8,59.2L259.8,59.2z"/>
<line class="st1" x1="235.8" y1="133.2" x2="277.8" y2="133.2"/>
<line class="st1" x1="297.6" y1="133.2" x2="308.2" y2="133.2"/>
<line class="st1" x1="195.1" y1="154.2" x2="254" y2="154.2"/>
<line class="st1" x1="206.1" y1="133.2" x2="217.4" y2="133.2"/>
<line class="st2" x1="272.4" y1="154.2" x2="327.4" y2="154.2"/>
<line class="st1" x1="192" y1="175.2" x2="211.9" y2="175.2"/>
<line class="st1" x1="230.8" y1="175.2" x2="273.5" y2="175.2"/>
<line class="st1" x1="291.7" y1="175.2" x2="331.4" y2="175.2"/>
<line class="st1" x1="195.1" y1="196.2" x2="299.6" y2="196.2"/>
<line class="st1" x1="319.2" y1="196.2" x2="327.4" y2="196.2"/>
<line class="st1" x1="206.1" y1="217.4" x2="246.8" y2="217.4"/>
<line class="st1" x1="265.8" y1="217.4" x2="277.8" y2="217.4"/>
<line class="st1" x1="294.9" y1="217.4" x2="314.8" y2="218.5"/>
<path class="st3" d="M317.8,135.5c-22.1-29.6-62.9-37.4-93-19c-29.1,17.8-40.1,55-28,85c9.1,22.6,30.5,38.8,55,42
	c37.5,4.9,61.6-23.2,63-25"/>
<g>
	<path class="st0" d="M638.7,147.4h-34.6v93.7h-27.8v-93.7h-33.9V126h96.3V147.4z"/>
	<path class="st0" d="M689.7,242.7c-13.1,0-23.8-3.9-31.9-11.7c-8.1-7.8-12.2-18-12.2-30.6v-2.2c0-8.8,1.6-16.5,4.9-23.2
		c3.2-6.7,8-11.9,14.2-15.5c6.2-3.7,13.6-5.5,22.1-5.5c12,0,21.5,3.7,28.5,11.2c7,7.5,10.4,17.9,10.4,31.2v10.4h-53
		c0.9,4.8,3,8.6,6.2,11.3c3.2,2.7,7.4,4.1,12.5,4.1c8.4,0,15-3,19.8-8.9l12.2,14.4c-3.3,4.6-8,8.2-14.1,11
		C703.3,241.4,696.7,242.7,689.7,242.7z M686.7,174.6c-7.8,0-12.4,5.2-13.9,15.5h26.9V188c0.1-4.3-1-7.6-3.2-9.9
		C694.2,175.7,690.9,174.6,686.7,174.6z"/>
	<path class="st0" d="M770.4,179.1l12.4-23.6h27.7L788,197.3l23.7,43.9h-27.8l-13.4-25.3l-13.2,25.3h-28l23.7-43.9l-22.5-41.7h28
		L770.4,179.1z"/>
	<path class="st0" d="M849.3,134.3v21.3h14.1v18.5h-14.1v39.2c0,3.2,0.6,5.5,1.7,6.7c1.2,1.3,3.5,1.9,6.9,1.9c2.6,0,4.9-0.2,6.6-0.5
		v19.1c-4.8,1.5-9.8,2.3-15,2.3c-9.2,0-16-2.2-20.3-6.5c-4.4-4.3-6.6-10.9-6.6-19.7v-42.5h-10.9v-18.5h10.9v-21.3H849.3z"/>
	<path class="st0" d="M967.5,202.2c-0.4,8-2.5,15.1-6.5,21.2c-4,6.1-9.5,10.9-16.7,14.3c-7.1,3.4-15.3,5.1-24.5,5.1
		c-15.1,0-27.1-4.9-35.8-14.8c-8.7-9.9-13.1-23.8-13.1-41.8v-5.7c0-11.3,2-21.2,5.9-29.6c3.9-8.5,9.6-15,17-19.6
		c7.4-4.6,15.9-6.9,25.6-6.9c14,0,25.2,3.7,33.7,11c8.5,7.4,13.3,17.5,14.5,30.4H940c-0.2-7-2-12-5.3-15.1
		c-3.3-3.1-8.4-4.6-15.2-4.6c-6.9,0-12,2.6-15.2,7.8c-3.2,5.2-4.9,13.4-5.1,24.8v8.1c0,12.3,1.5,21.1,4.6,26.3
		c3.1,5.3,8.4,7.9,15.9,7.9c6.4,0,11.3-1.5,14.6-4.5c3.4-3,5.2-7.8,5.4-14.3H967.5z"/>
	<path class="st0" d="M1026.8,241.2c-0.9-1.7-1.8-4.3-2.5-7.7c-4.9,6.2-11.8,9.3-20.6,9.3c-8.1,0-14.9-2.4-20.6-7.3
		c-5.6-4.9-8.5-11-8.5-18.4c0-9.3,3.4-16.3,10.3-21c6.9-4.7,16.8-7.1,29.9-7.1h8.2v-4.5c0-7.9-3.4-11.8-10.2-11.8
		c-6.3,0-9.5,3.1-9.5,9.4h-26.7c0-8.3,3.5-15,10.6-20.1c7-5.2,16-7.7,26.9-7.7s19.5,2.7,25.9,8c6.3,5.3,9.6,12.6,9.7,21.9v37.9
		c0.1,7.9,1.3,13.9,3.6,18v1.3H1026.8z M1010.1,223.8c3.3,0,6.1-0.7,8.3-2.1c2.2-1.4,3.8-3,4.7-4.8v-13.7h-7.8
		c-9.3,0-13.9,4.2-13.9,12.5c0,2.4,0.8,4.4,2.5,5.9C1005.5,223,1007.6,223.8,1010.1,223.8z"/>
	<path class="st0" d="M1143.2,199c0,13.3-3,23.9-9,31.8c-6,7.9-14.1,11.9-24.2,11.9c-7.9,0-14.3-2.9-19.4-8.6v39.9h-26.7V155.6h24.9
		l0.8,7.9c5.1-6.3,11.8-9.5,20.2-9.5c10.5,0,18.7,3.9,24.6,11.7c5.9,7.8,8.8,18.5,8.8,32.1V199z M1116.6,197.3
		c0-15.2-4.4-22.8-13.3-22.8c-6.3,0-10.5,2.3-12.7,6.8v33.7c2.3,4.7,6.6,7.1,12.8,7.1c8.5,0,12.9-7.3,13.1-22V197.3z"/>
	<path class="st0" d="M1199,217.1c0-2.3-1.2-4.1-3.6-5.5c-2.4-1.4-6.9-2.8-13.5-4.3c-6.6-1.5-12.1-3.4-16.5-5.8
		c-4.3-2.4-7.6-5.3-9.9-8.7c-2.3-3.4-3.4-7.4-3.4-11.8c0-7.9,3.2-14.3,9.7-19.4c6.5-5.1,15-7.6,25.5-7.6c11.3,0,20.4,2.6,27.2,7.7
		c6.9,5.1,10.3,11.8,10.3,20.2h-26.7c0-6.9-3.6-10.3-10.8-10.3c-2.8,0-5.1,0.8-7,2.3c-1.9,1.6-2.8,3.5-2.8,5.8
		c0,2.4,1.2,4.3,3.5,5.8c2.3,1.5,6,2.7,11.1,3.6s9.6,2.1,13.4,3.4c12.9,4.4,19.3,12.4,19.3,23.8c0,7.8-3.5,14.2-10.4,19.1
		s-15.9,7.4-26.9,7.4c-7.3,0-13.9-1.3-19.6-4c-5.7-2.6-10.2-6.2-13.4-10.8c-3.2-4.5-4.8-9.3-4.8-14.3h24.9c0.1,4,1.4,6.8,4,8.7
		s5.8,2.7,9.7,2.7c3.6,0,6.4-0.7,8.2-2.2C1198,221.4,1199,219.5,1199,217.1z"/>
</g>
</svg>
