<svg height="600" viewBox="0 0 600 600" width="600" xmlns="http://www.w3.org/2000/svg"><g fill="#fff"><path d="m299.86 139.2c30 0 58.84 9.29 90.66 29.25 29.36 18.4 57.59 43.79 84.88 68.34l.27.25c-33.27 29.63-60.81 50.71-86.34 66.11-32.69 19.73-62.07 29.73-87.32 29.73-26.12 0-54.51-9.22-86.8-28.2-26.27-15.44-54.69-37-89.09-67.69l2.57-2.34c30.93-28.17 57.64-52.49 85.13-69.55 28.88-17.91 55.41-25.9 86-25.9m0-20c-76.82 0-125.38 46.8-191.65 107.09-6 5.42-6 16.1 0 21.49 63.94 57.58 129.83 105.1 193.83 105.1s132.55-51.88 191.61-105.06c6-5.4 6-16.13 0-21.53-58.05-52.18-116.89-107.09-193.75-107.09z"/><g opacity=".5"><path d="m305 231h-70a6 6 0 0 1 0-12h70a6 6 0 0 1 0 12z"/><path d="m362 231h-40a6 6 0 0 1 0-12h40a6 6 0 0 1 0 12z"/><path d="m321 252h-52a6 6 0 0 1 0-12h52a6 6 0 0 1 0 12z"/><path d="m252 252h-17a6 6 0 0 1 0-12h17a6 6 0 0 1 0 12z"/><path d="m362 252h-24a6 6 0 0 1 0-12h24a6 6 0 0 1 0 12z"/><path d="m281 273h-46a6 6 0 0 1 0-12h46a6 6 0 0 1 0 12z"/><path d="m304 273h-5a6 6 0 0 1 0-12h5a6 6 0 0 1 0 12z"/><path d="m331 210h-72a6 6 0 0 1 0-12h72a6 6 0 0 1 0 12z"/><path d="m242 210h-7a6 6 0 0 1 0-12h7a6 6 0 0 1 0 12z"/><path d="m362 210h-14a6 6 0 0 1 0-12h14a6 6 0 0 1 0 12z"/></g><path d="m299.5 156.39a78.11 78.11 0 1 0 42.82 143.39l6.28 7a10 10 0 0 0 14.86-13.38l-5.95-6.62a78.07 78.07 0 0 0 -58-130.36zm0 136.22a58.11 58.11 0 1 1 58.11-58.11 58.18 58.18 0 0 1 -58.11 58.11z"/></g></svg>