<?xml version="1.0" encoding="utf-8"?>
<!-- Generator: Adobe Illustrator 24.0.1, SVG Export Plug-In . SVG Version: 6.00 Build 0)  -->
<svg version="1.1" id="Layer_1" xmlns="http://www.w3.org/2000/svg" xmlns:xlink="http://www.w3.org/1999/xlink" x="0px" y="0px"
	 viewBox="0 0 1280 353" style="enable-background:new 0 0 1280 353;" xml:space="preserve">
<style type="text/css">
	.st0{fill:#A81E2F;}
	.st1{opacity:0.5;fill:none;stroke:#A81E2F;stroke-width:13;stroke-linecap:round;stroke-miterlimit:10;enable-background:new    ;}
	.st2{fill:none;stroke:#2B2B2B;stroke-width:20;stroke-linecap:round;stroke-miterlimit:10;}
	.st3{fill:none;}
	.st4{enable-background:new    ;}
	.st5{fill:#2B2B2B;}
</style>
<title>TextVQA Logo and text</title>
<path class="st0" d="M266.9,79.2c30,0,58.8,9.3,90.7,29.3c29.4,18.4,57.6,43.8,84.9,68.3l0.3,0.3c-33.3,29.6-60.8,50.7-86.3,66.1
	c-32.7,19.7-62.1,29.7-87.3,29.7c-26.1,0-54.5-9.2-86.8-28.2c-26.3-15.4-54.7-37-89.1-67.7l2.6-2.3c30.9-28.2,57.6-52.5,85.1-69.6
	C209.7,87.2,236.2,79.2,266.9,79.2 M266.8,59.2C190,59.2,141.4,106,75.2,166.3c-6,5.4-6,16.1,0,21.5
	C139.1,245.4,205,292.9,269,292.9S401.5,241,460.6,187.8c6-5.4,6-16.1,0-21.5C402.6,114.1,343.7,59.2,266.8,59.2L266.8,59.2z"/>
<line class="st1" x1="242.8" y1="133.2" x2="284.8" y2="133.2"/>
<line class="st1" x1="304.6" y1="133.2" x2="315.2" y2="133.2"/>
<line class="st1" x1="202.1" y1="154.2" x2="261" y2="154.2"/>
<line class="st1" x1="213.1" y1="133.2" x2="224.4" y2="133.2"/>
<line class="st1" x1="279.4" y1="154.2" x2="334.4" y2="154.2"/>
<line class="st1" x1="199" y1="175.2" x2="218.9" y2="175.2"/>
<line class="st1" x1="237.8" y1="175.2" x2="280.5" y2="175.2"/>
<line class="st1" x1="298.7" y1="175.2" x2="338.4" y2="175.2"/>
<line class="st1" x1="202.1" y1="196.2" x2="306.6" y2="196.2"/>
<line class="st1" x1="326.2" y1="196.2" x2="334.4" y2="196.2"/>
<line class="st1" x1="213.1" y1="217.4" x2="253.8" y2="217.4"/>
<line class="st1" x1="272.8" y1="217.4" x2="284.8" y2="217.4"/>
<line class="st1" x1="301.9" y1="217.4" x2="321.8" y2="218.5"/>
<path class="st2" d="M324.8,135.5c-22.1-29.6-62.9-37.4-93-19c-29.1,17.8-40.1,55-28,85c9.1,22.6,30.5,38.8,55,42
	c37.5,4.9,61.6-23.2,63-25"/>
<rect x="528.7" y="108.1" class="st3" width="735.1" height="269.9"/>
<g class="st4">
	<path class="st5" d="M623.5,134.7h-33.1v89.7h-26.6v-89.7h-32.5v-20.5h92.1V134.7z"/>
	<path class="st5" d="M666.4,225.9c-12.6,0-22.7-3.7-30.5-11.2c-7.8-7.5-11.7-17.2-11.7-29.3v-2.1c0-8.4,1.6-15.8,4.7-22.2
		c3.1-6.4,7.6-11.4,13.6-14.9c6-3.5,13-5.3,21.2-5.3c11.5,0,20.6,3.6,27.2,10.7c6.7,7.1,10,17.1,10,29.9v9.9h-50.7
		c0.9,4.6,2.9,8.2,6,10.8c3.1,2.6,7.1,3.9,12,3.9c8.1,0,14.4-2.8,18.9-8.5l11.7,13.8c-3.2,4.4-7.7,7.9-13.5,10.5
		C679.4,224.6,673.1,225.9,666.4,225.9z M663.5,160.6c-7.5,0-11.9,4.9-13.3,14.8h25.7v-2c0.1-4.1-0.9-7.3-3.1-9.5
		C670.7,161.8,667.6,160.6,663.5,160.6z"/>
	<path class="st5" d="M744.4,165l11.9-22.6h26.5l-21.6,39.9l22.6,42h-26.6l-12.9-24.2l-12.6,24.2h-26.8l22.7-42l-21.5-39.9h26.8
		L744.4,165z"/>
	<path class="st5" d="M820.6,122.1v20.4h13.5v17.7h-13.5v37.5c0,3.1,0.6,5.2,1.7,6.4c1.1,1.2,3.3,1.8,6.6,1.8c2.5,0,4.6-0.2,6.4-0.5
		v18.2c-4.6,1.5-9.4,2.2-14.4,2.2c-8.8,0-15.3-2.1-19.5-6.2c-4.2-4.1-6.3-10.4-6.3-18.8v-40.6h-10.4v-17.7h10.4v-20.4H820.6z"/>
	<path class="st5" d="M934.5,187c-0.4,7.7-2.4,14.4-6.2,20.3c-3.8,5.9-9.1,10.4-15.9,13.7c-6.8,3.2-14.6,4.8-23.4,4.8
		c-14.5,0-25.9-4.7-34.2-14.2c-8.3-9.4-12.5-22.8-12.5-40v-5.4c0-10.8,1.9-20.2,5.6-28.3c3.8-8.1,9.2-14.4,16.2-18.8
		c7.1-4.4,15.2-6.6,24.5-6.6c13.4,0,24.1,3.5,32.2,10.6c8.1,7,12.7,16.7,13.9,29.1h-26.5c-0.2-6.7-1.9-11.5-5.1-14.5
		c-3.2-2.9-8-4.4-14.5-4.4c-6.6,0-11.5,2.5-14.5,7.4c-3.1,4.9-4.7,12.8-4.8,23.7v7.8c0,11.8,1.5,20.2,4.4,25.2c3,5,8,7.6,15.3,7.6
		c6.1,0,10.8-1.4,14-4.3c3.2-2.9,4.9-7.4,5.1-13.7H934.5z"/>
	<path class="st5" d="M992,224.4c-0.9-1.7-1.7-4.1-2.4-7.3c-4.7,5.9-11.3,8.9-19.7,8.9c-7.7,0-14.3-2.3-19.7-7
		c-5.4-4.7-8.1-10.5-8.1-17.6c0-8.9,3.3-15.6,9.8-20.1c6.6-4.5,16.1-6.8,28.6-6.8h7.9V170c0-7.6-3.3-11.3-9.8-11.3
		c-6.1,0-9.1,3-9.1,9h-25.5c0-7.9,3.4-14.3,10.1-19.3c6.7-4.9,15.3-7.4,25.8-7.4s18.7,2.5,24.7,7.6c6.1,5.1,9.2,12.1,9.3,21v36.3
		c0.1,7.5,1.3,13.3,3.5,17.3v1.3H992z M976,207.7c3.2,0,5.8-0.7,7.9-2c2.1-1.4,3.6-2.9,4.5-4.6V188H981c-8.9,0-13.3,4-13.3,12
		c0,2.3,0.8,4.2,2.3,5.6C971.6,207,973.6,207.7,976,207.7z"/>
	<path class="st5" d="M1104.2,184c0,12.7-2.9,22.9-8.6,30.5c-5.7,7.6-13.5,11.4-23.2,11.4c-7.5,0-13.7-2.7-18.5-8.3v38.2h-25.5
		V142.5h23.8l0.8,7.6c4.9-6.1,11.3-9.1,19.3-9.1c10.1,0,17.9,3.7,23.5,11.2c5.6,7.4,8.4,17.7,8.4,30.7V184z M1078.7,182.4
		c0-14.5-4.2-21.8-12.7-21.8c-6.1,0-10.1,2.2-12.1,6.5v32.2c2.2,4.5,6.3,6.8,12.3,6.8c8.1,0,12.3-7,12.6-21V182.4z"/>
	<path class="st5" d="M1158.3,201.4c0-2.2-1.1-3.9-3.4-5.2c-2.3-1.3-6.6-2.7-12.9-4.1c-6.4-1.4-11.6-3.3-15.7-5.6
		c-4.1-2.3-7.3-5.1-9.5-8.4c-2.2-3.3-3.3-7-3.3-11.3c0-7.5,3.1-13.7,9.3-18.6s14.3-7.3,24.4-7.3c10.8,0,19.5,2.4,26,7.3
		c6.6,4.9,9.8,11.3,9.8,19.3h-25.6c0-6.6-3.5-9.8-10.4-9.8c-2.7,0-4.9,0.7-6.7,2.2c-1.8,1.5-2.7,3.3-2.7,5.6c0,2.3,1.1,4.1,3.3,5.5
		c2.2,1.4,5.8,2.6,10.6,3.5c4.9,0.9,9.1,2,12.8,3.3c12.3,4.2,18.5,11.8,18.5,22.8c0,7.5-3.3,13.5-10,18.2c-6.6,4.7-15.2,7-25.8,7
		c-7,0-13.3-1.3-18.8-3.8c-5.5-2.5-9.8-6-12.9-10.3c-3.1-4.3-4.6-8.9-4.6-13.7h23.8c0.1,3.8,1.4,6.5,3.8,8.3
		c2.4,1.7,5.5,2.6,9.3,2.6c3.5,0,6.1-0.7,7.8-2.1C1157.4,205.5,1158.3,203.6,1158.3,201.4z"/>
</g>
</svg>
