<svg enable-background="new 0 0 600 600" viewBox="0 0 600 600" xmlns="http://www.w3.org/2000/svg"><path d="m97.6 394.9h727v269.9h-727z" fill="none"/><g enable-background="new" fill="#fff"><path d="m157 411.6h-20.7v56.1h-16.6v-56.1h-20.4v-12.8h57.7z"/><path d="m183.8 468.6c-7.9 0-14.2-2.3-19.1-7s-7.3-10.8-7.3-18.3v-1.3c0-5.2 1-9.9 2.9-13.9s4.8-7.1 8.5-9.3 8.1-3.3 13.3-3.3c7.2 0 12.9 2.2 17.1 6.7s6.3 10.7 6.3 18.7v6.2h-31.7c.6 2.9 1.8 5.1 3.7 6.8 1.9 1.6 4.4 2.5 7.5 2.5 5.1 0 9-1.8 11.8-5.3l7.3 8.6c-2 2.7-4.8 4.9-8.5 6.6-3.6 1.5-7.6 2.3-11.8 2.3zm-1.8-40.8c-4.7 0-7.5 3.1-8.3 9.3h16.1v-1.2c.1-2.6-.6-4.5-1.9-5.9-1.4-1.5-3.3-2.2-5.9-2.2z"/><path d="m232.6 430.5 7.4-14.1h16.6l-13.5 25 14.2 26.3h-16.7l-8.1-15.2-7.9 15.2h-16.8l14.2-26.3-13.5-25h16.8z"/><path d="m280.4 403.7v12.7h8.4v11.1h-8.4v23.5c0 1.9.3 3.3 1 4 .7.8 2.1 1.1 4.1 1.1 1.6 0 2.9-.1 4-.3v11.4c-2.9.9-5.9 1.4-9 1.4-5.5 0-9.6-1.3-12.2-3.9s-3.9-6.5-3.9-11.8v-25.4h-6.5v-11.1h6.5v-12.7z"/><path d="m351.6 444.3c-.2 4.8-1.5 9-3.9 12.7s-5.7 6.5-10 8.5-9.2 3-14.7 3c-9.1 0-16.2-3-21.4-8.9s-7.8-14.2-7.8-25v-3.4c0-6.8 1.2-12.7 3.5-17.7 2.4-5.1 5.7-9 10.2-11.7 4.4-2.8 9.5-4.1 15.3-4.1 8.4 0 15.1 2.2 20.2 6.6s8 10.5 8.7 18.2h-16.6c-.1-4.2-1.2-7.2-3.2-9s-5-2.7-9.1-2.7-7.2 1.5-9.1 4.6-2.9 8-3 14.8v4.9c0 7.4.9 12.6 2.8 15.8 1.8 3.2 5 4.7 9.5 4.7 3.8 0 6.7-.9 8.8-2.7 2-1.8 3.1-4.7 3.2-8.6z"/><path d="m387.6 467.7c-.6-1-1.1-2.6-1.5-4.6-2.9 3.7-7 5.5-12.3 5.5-4.8 0-8.9-1.5-12.3-4.4s-5.1-6.6-5.1-11c0-5.6 2.1-9.8 6.2-12.6s10.1-4.3 17.9-4.3h4.9v-2.7c0-4.7-2-7.1-6.1-7.1-3.8 0-5.7 1.9-5.7 5.6h-16c0-5 2.1-9 6.3-12.1s9.6-4.6 16.1-4.6 11.7 1.6 15.5 4.8 5.7 7.6 5.8 13.1v22.7c.1 4.7.8 8.3 2.2 10.8v.8h-15.9zm-10-10.4c2 0 3.6-.4 5-1.3 1.3-.9 2.2-1.8 2.8-2.9v-8.2h-4.6c-5.6 0-8.3 2.5-8.3 7.5 0 1.5.5 2.6 1.5 3.5.8.9 2.1 1.4 3.6 1.4z"/><path d="m457.8 442.4c0 8-1.8 14.3-5.4 19.1s-8.4 7.1-14.5 7.1c-4.7 0-8.6-1.7-11.6-5.2v23.9h-16v-71h14.9l.5 4.7c3.1-3.8 7.1-5.7 12.1-5.7 6.3 0 11.2 2.3 14.7 7s5.3 11.1 5.3 19.2zm-16-1c0-9.1-2.7-13.6-8-13.6-3.8 0-6.3 1.4-7.6 4.1v20.2c1.4 2.8 3.9 4.3 7.7 4.3 5.1 0 7.7-4.4 7.9-13.2z"/><path d="m491.6 453.3c0-1.4-.7-2.4-2.1-3.3-1.4-.8-4.1-1.7-8.1-2.6s-7.3-2-9.9-3.5-4.6-3.2-5.9-5.2c-1.4-2.1-2-4.4-2-7.1 0-4.7 1.9-8.6 5.8-11.6s9-4.6 15.3-4.6c6.8 0 12.2 1.5 16.3 4.6s6.2 7.1 6.2 12.1h-16c0-4.1-2.2-6.2-6.5-6.2-1.7 0-3.1.5-4.2 1.4s-1.7 2.1-1.7 3.5.7 2.6 2.1 3.5 3.6 1.6 6.7 2.2 5.7 1.2 8 2c7.7 2.7 11.6 7.4 11.6 14.3 0 4.7-2.1 8.5-6.2 11.4-4.2 2.9-9.5 4.4-16.1 4.4-4.4 0-8.3-.8-11.7-2.4s-6.1-3.7-8.1-6.4c-1.9-2.7-2.9-5.6-2.9-8.6h14.9c.1 2.4.9 4.1 2.4 5.2s3.5 1.6 5.8 1.6c2.2 0 3.8-.4 4.9-1.3.9-.8 1.4-2 1.4-3.4z"/></g></svg>