<svg xmlns="http://www.w3.org/2000/svg" width="600" height="600" viewBox="0 0 600 600"><defs><style>.a{fill:#232323;}</style></defs><title>TextVQA Text only</title><path class="a" d="M133.06,470.82H116.37v-60H93.89V396.6h61.64v14.24H133.06Z"/><path class="a" d="M166.33,448.56c1,7.35,5.35,11.35,12.13,11.35,4.23,0,7.24-1.44,9.35-4.78h16c-3,10.46-13,17.13-25.81,17.13-16.58,0-27.6-11.35-27.6-28.26s11.24-28.37,27.49-28.37c11.35,0,19.91,5.67,23.92,15.8,1.89,4.67,2.67,9.68,2.67,17.13Zm21.92-11.12c-.66-6.35-4.33-9.8-10.46-9.8s-10.12,3.45-11.34,9.8Z"/><path class="a" d="M261.81,470.82H243.45l-10.12-15.36-9.91,15.36h-18l19.25-28.15-17.58-25.6h17.58l8.79,13.58,8.46-13.58h17.58L242,442.67Z"/><path class="a" d="M296.86,428.87h-9.68v20.92c0,8.45.33,9.12,4,9.12h5.67v11.91h-9.68c-6.9,0-10.35-1-12.68-3.56s-3.12-5.57-3.12-13.91V428.87h-7.57V417.74h7.57v-17h15.8v17h9.68Z"/><path class="a" d="M321.86,470.82,297.38,396.6H315.3l9.79,33.83c0,.11.78,2.89,1.44,5.34.56,2.22,1.23,4.34,1.78,6.45l2.23,8.23c2-8.23,2.56-10.45,5.23-20.13l9.9-33.72h17.47l-24.81,74.22Z"/><path class="a" d="M438,465.7l-9.34,10.12-9.13-8.12a38.69,38.69,0,0,1-19.14,4.79c-21.92,0-36.71-15.58-36.71-38.84s14.79-38.72,36.83-38.72,36.71,15.58,36.71,38.61c0,9.79-2.56,18.69-7.34,24.93Zm-20.58-18.36a35.71,35.71,0,0,0,2.33-13.8c0-15.24-7.23-24.48-19.24-24.48s-19.37,9.24-19.37,24.59c0,15.58,7.24,24.7,19.48,24.7a17.91,17.91,0,0,0,7-1.33L402,452l9.24-10.35Z"/><path class="a" d="M465.49,455.91l-4.67,14.91H442.68l25.93-74.22h20.8L513,470.82H494.09l-4-14.91Zm13.13-42.73-9,29h16.8Z"/></svg>