<?xml version="1.0" encoding="utf-8"?>
<!-- Generator: Adobe Illustrator 24.0.1, SVG Export Plug-In . SVG Version: 6.00 Build 0)  -->
<svg version="1.1" id="Layer_1" xmlns="http://www.w3.org/2000/svg" xmlns:xlink="http://www.w3.org/1999/xlink" x="0px" y="0px"
	 viewBox="0 0 600 600" style="enable-background:new 0 0 600 600;" xml:space="preserve">
<style type="text/css">
	.st0{fill:#A81E2F;}
	.st1{opacity:0.5;fill:#A81E2F;stroke:#A81E2F;stroke-width:13;stroke-linecap:round;stroke-miterlimit:10;}
	.st2{fill:none;stroke:#2B2B2B;stroke-width:20;stroke-linecap:round;stroke-miterlimit:10;}
</style>
<path class="st0" d="M300.5,139.2c30,0,58.8,9.3,90.7,29.3c29.4,18.4,57.6,43.8,84.9,68.3l0.3,0.3c-33.3,29.6-60.8,50.7-86.3,66.1
	c-32.7,19.7-62.1,29.7-87.3,29.7c-26.1,0-54.5-9.2-86.8-28.2c-26.3-15.4-54.7-37-89.1-67.7l2.6-2.3c30.9-28.2,57.6-52.5,85.1-69.6
	C243.3,147.2,269.8,139.2,300.5,139.2 M300.4,119.2c-76.8,0-125.4,46.8-191.6,107.1c-6,5.4-6,16.1,0,21.5
	c63.9,57.6,129.8,105.1,193.8,105.1S435.2,301,494.2,247.8c6-5.4,6-16.1,0-21.5C436.2,174.1,377.3,119.2,300.4,119.2L300.4,119.2z"
	/>
<line class="st1" x1="276.4" y1="193.2" x2="318.4" y2="193.2"/>
<line class="st1" x1="338.3" y1="193.2" x2="348.8" y2="193.2"/>
<line class="st1" x1="235.7" y1="214.2" x2="294.6" y2="214.2"/>
<line class="st1" x1="246.7" y1="193.2" x2="258" y2="193.2"/>
<line class="st1" x1="313" y1="214.2" x2="368" y2="214.2"/>
<line class="st1" x1="232.6" y1="235.2" x2="252.5" y2="235.2"/>
<line class="st1" x1="271.4" y1="235.2" x2="314.1" y2="235.2"/>
<line class="st1" x1="332.3" y1="235.2" x2="372" y2="235.2"/>
<line class="st1" x1="235.7" y1="256.2" x2="340.2" y2="256.2"/>
<line class="st1" x1="359.8" y1="256.2" x2="368" y2="256.2"/>
<line class="st1" x1="246.7" y1="277.4" x2="287.4" y2="277.4"/>
<line class="st1" x1="306.4" y1="277.4" x2="318.4" y2="277.4"/>
<line class="st1" x1="335.5" y1="277.4" x2="355.4" y2="278.5"/>
<path class="st2" d="M358.4,195.5c-22.1-29.6-62.9-37.4-93-19c-29.1,17.8-40.1,55-28,85c9.1,22.6,30.5,38.8,55,42
	c37.5,4.9,61.6-23.2,63-25"/>
</svg>
